. 
  
http://www.torrentday.com/        :     The Hottest Private Tracker On The Net!!!
 
http://www.torrentday.com          :     Once & For all ;)


               www . TorrentDay . Com 

(((((((((((((= Enjoy No RAR releases =))))))))))))))))))))


...................................NFO:....................................

.[pre]
      *********** ****    ****      ***      ******** *********** ****    *** **********
           *+*     +*+*+* *+*+*+   *+* *+*   *+*    *+*    *+*     *+*+*   *+* *+*        
           +*+     +*+ +*+*+ +*+  +*+   +*+  +*+           +*+     *+*+*+  +*+ +*+        
           +$+     +$+  +*+  +$+ +$++*++$++* *$*           +$+     +$+ +*+ +$+ +$++*++$  
           +$+     +$+       +$+ +$+     +$+ +$+   +$+$    +$+     +$+  +$+$+$ +$+        
           $+$     $+$       $+$ $+$     $+$ $+$    $+$    $+$     $+$   $+$+$ $+$        
       $$$$$$$$$$$ $$$       $$$ $$$     $$$  $$$$$$$$ $$$$$$$$$$$ $$$    $$$$ $$$$$$$$$$     
                                                



                           Another Fine Release Brought to you from - IMAGiNE                   
                                                 

********************************************************************************************************************                                
                               The Mechanic 2010 TS XViD - IMAGiNE
********************************************************************************************************************

Ripper ...........:IMAGiNE                                         IMDB Rating.......:7.2/10                             
Video Codec.......:XVID                                            Release Date......:30/02/11
Audio Codec.......:AC-3                                            Theatre Date......:28/01/11
Audio Bitrate.....:160                                             Runtime...........:1h 25mn
Subtitles.........:NIL                                             Language..........:ENGLISH
Resolution........:704  x 288                                      IMDb URL..........:http://www.imdb.com/title/tt0472399/
[color=yellow]DETAILS:[/color]

Video
ID                               : 0
Format                           : MPEG-4 Visual
Format profile                   : Advanced Simple@L5
Format settings, BVOP            : Yes
Format settings, QPel            : No
Format settings, GMC             : No warppoints
Format settings, Matrix          : Default (MPEG)
Muxing mode                      : Packed bitstream
Codec ID                         : XVID
Codec ID/Hint                    : XviD
Duration                         : 1h 25mn
Bit rate                         : 2 138 Kbps
Width                            : 704 pixels
Height                           : 288 pixels
Display aspect ratio             : 2.40:1
Frame rate                       : 25.000 fps
Color space                      : YUV
Chroma subsampling               : 4:2:0
Bit depth                        : 8 bits
Scan type                        : Progressive
Bits/(Pixel*Frame)               : 0.422
Stream size                      : 1.27 GiB (93%)
Writing library                  : XviD 1.2.1 (UTC 2008-12-04)

Audio
ID                               : 1
Format                           : MPEG Audio
Format version                   : Version 1
Format profile                   : Layer 3
Codec ID                         : 55
Codec ID/Hint                    : MP3
Duration                         : 1h 25mn
Bit rate mode                    : Constant
Bit rate                         : 160 Kbps
Channel(s)                       : 2 channels
Sampling rate                    : 48.0 KHz
Stream size                      : 97.4 MiB (7%)
Alignment                        : Aligned on interleaves
Interleave, duration             : 40 ms (1.00 video frame)
Interleave, preload duration     : 504 ms








[color=yellow]SOURCES:[/color]

VIDEO: Mechanic.(2011).CAMRip.PROPER... Thanks 
AUDIO: T0XiC... Thanks

[color=yellow]NOTES:[/color]

IMAGiNE bringing you another release.......... The Mechanic 2010....

Here we are with our encode of this movie for you all.Now the proper camrip
was missing 5.26 from start so we took the 5.26 of the first camrip from rus
video and resize it to fit our encode. Now for the video we just made a script 
containing white balance, rgb eq, sharpness, chroma, brightness, contrast ect.
With the audio it was just a case of muxing the audio back to our encode...

Enjoy ;)

[color=yellow]SCREENS:[/color]


[color=yellow]GREETS:[/color]

FLAWL3SS,ViSiON,FUSiON,Rx,SecretMyth,BirdFlu,ELEKTRI4KA,SERENiTY and Autotron
And to all the other p2p grps past and present 


[COLOR=RED]Looking for these,syncers,cammers,silver supplier,Audio.....Have anything to offer????......
Contact us imaginegroup@hushmail.com[/COLOR][/pre]